#!OML:ASF X:\für Bonn\!DataBase\2005_08_12_Daniel\c3d\Daniel.ASF
:FULLY-SPECIFIED
:DEGREES
2913
root -6.41438 15.9782 16.8252 -10.6925 -46.529 367.975
lowerback 12.4061 -4.25155 -0.771828
upperback 1.68304 -5.77781 -0.0307932
thorax -5.08751 -2.84553 1.35312
lowerneck -6.59016 -0.899272 -7.70604
upperneck 4.23723 -0.76913 4.56044
head 2.60999 -0.371421 2.84706
rclavicle 4.78077e-014 7.95139e-016
rhumerus -54.1293 -7.54552 -91.2738
rradius 63.8476
rwrist 5.59284
rhand -27.7269 28.3652
rfingers 7.12502
rthumb -1.12213 -1.61157
lclavicle 4.78077e-014 7.95139e-016
lhumerus -58.9783 -4.16668 97.5399
lradius 94.3019
lwrist 7.58718
lhand -8.45307 -12.8128
lfingers 7.12502
lthumb 17.4729 16.4219
rfemur -14.0008 -1.45293 32.6606
rtibia 52.5722
rfoot -32.9191 -1.24825
rtoes 8.06705
lfemur -21.7632 6.33335 -10.6522
ltibia 102.213
lfoot -0.706713 -6.23234
ltoes -9.47502
2914
root -6.56004 16.0008 17.0429 -11.044 -47.3557 368.206
lowerback 12.443 -4.09891 -0.929861
upperback 1.72383 -5.60112 -0.0880303
thorax -5.05964 -2.7572 1.35336
lowerneck -6.2788 -0.964725 -7.64311
upperneck 4.11155 -0.885988 4.59958
head 2.51691 -0.428705 2.83952
rclavicle 6.31141e-015 -1.03368e-014
rhumerus -53.1708 -7.81164 -92.162
rradius 64.9971
rwrist 6.67871
rhand -27.7477 28.9721
rfingers 7.12502
rthumb -1.14224 -1.00461
lclavicle 6.31141e-015 -1.03368e-014
lhumerus -59.4938 -3.7053 97.5146
lradius 93.0518
lwrist 7.17439
lhand -8.27603 -12.8301
lfingers 7.12502
lthumb 17.6432 16.3894
rfemur -12.5675 -1.39816 32.1892
rtibia 52.1898
rfoot -32.9353 -0.347457
rtoes 8.12558
lfemur -23.5611 6.10603 -11.2099
ltibia 102.154
lfoot -1.30076 -5.8774
ltoes -9.47771
2915
root -6.70811 16.0344 17.2591 -11.4302 -48.2168 368.491
lowerback 12.4773 -3.9219 -1.10775
upperback 1.75017 -5.39637 -0.172172
thorax -5.04766 -2.65456 1.33274
lowerneck -5.9691 -1.02255 -7.6303
upperneck 4.00349 -0.994412 4.75577
head 2.43249 -0.479688 2.88292
rclavicle 6.21202e-014 6.36111e-015
rhumerus -52.4485 -7.40319 -93.3021
rradius 66.4752
rwrist 7.10634
rhand -27.5006 29.0704
rfingers 7.12502
rthumb -0.903581 -0.907401
lclavicle 6.21202e-014 6.36111e-015
lhumerus -60.1637 -3.39776 97.5122
lradius 92.2884
lwrist 6.90482
lhand -7.88746 -12.744
lfingers 7.12502
lthumb 18.0171 16.4415
rfemur -11.0696 -1.22949 31.6796
rtibia 51.683
rfoot -32.7513 0.474503
rtoes 8.39998
lfemur -25.1524 5.77171 -11.8473
ltibia 101.691
lfoot -1.98383 -5.34292
ltoes -9.3815
2916
root -6.86349 16.0844 17.4737 -11.8524 -49.0882 368.907
lowerback 12.4131 -3.72828 -1.42284
upperback 1.75938 -5.18544 -0.236095
thorax -4.98597 -2.547 1.40151
lowerneck -5.74545 -1.08879 -7.65385
upperneck 4.01319 -1.10418 4.86811
head 2.40395 -0.53405 2.92045
rclavicle -9.4373e-014 -7.95139e-016
rhumerus -51.9441 -6.29312 -94.5277
rradius 68.1329
rwrist 7.04369
rhand -27.0679 28.9827
rfingers 7.12502
rthumb -0.48571 -0.996446
lclavicle -9.4373e-014 -7.95139e-016
lhumerus -61.0221 -3.14977 97.5701
lradius 91.9854
lwrist 6.90306
lhand -7.19183 -12.506
lfingers 7.12502
lthumb 18.6863 16.6165
rfemur -9.54716 -0.803259 31.1262
rtibia 51.055
rfoot -32.4082 1.19289
rtoes 8.66061
lfemur -26.7272 5.42199 -12.6613
ltibia 100.889
lfoot -2.64135 -4.68605
ltoes -9.89069
2917
root -7.02209 16.1454 17.6869 -12.407 -49.9886 369.369
lowerback 12.4201 -3.51312 -1.69625
upperback 1.81663 -4.94662 -0.392344
thorax -4.92755 -2.42785 1.35064
lowerneck -5.68378 -1.17577 -7.57641
upperneck 4.15571 -1.24381 5.03827
head 2.45184 -0.599789 2.96036
rclavicle 6.63941e-014 -3.18055e-015
rhumerus -51.552 -4.9199 -95.8755
rradius 69.8954
rwrist 6.71223
rhand -26.3404 28.7217
rfingers 7.12502
rthumb 0.216986 -1.25796
lclavicle 6.63941e-014 -3.18055e-015
lhumerus -62.1334 -3.23884 97.5263
lradius 92.1623
lwrist 7.24577
lhand -6.46415 -12.3382
lfingers 7.12502
lthumb 19.3861 16.7155
rfemur -7.88379 -0.291757 30.5708
rtibia 50.3359
rfoot -31.9193 1.80898
rtoes 8.83261
lfemur -27.9864 4.97349 -13.4802
ltibia 99.7107
lfoot -3.28902 -3.88837
ltoes -9.55053
2918
root -7.18176 16.2155 17.8984 -12.9108 -50.9408 369.839
lowerback 12.3826 -3.28761 -1.98037
upperback 1.82782 -4.69291 -0.520893
thorax -4.89101 -2.30013 1.33151
lowerneck -5.70289 -1.27432 -7.5452
upperneck 4.47694 -1.39403 5.20348
head 2.57682 -0.672546 3.00962
rclavicle -6.95746e-016 -1.27222e-014
rhumerus -51.3131 -3.2154 -97.1139
rradius 71.684
rwrist 6.27829
rhand -25.4218 28.3904
rfingers 7.12502
rthumb 1.10416 -1.58646
lclavicle -6.95746e-016 -1.27222e-014
lhumerus -63.3329 -3.41151 97.5573
lradius 92.6616
lwrist 7.77932
lhand -5.67468 -12.0411
lfingers 7.12502
lthumb 20.1451 16.9344
rfemur -6.32732 0.449385 30.0918
rtibia 49.6062
rfoot -31.2698 2.18537
rtoes 9.08985
lfemur -29.0742 4.53674 -14.1969
ltibia 98.2153
lfoot -4.06204 -3.31481
ltoes -8.69607
2919
root -7.34017 16.2982 18.1114 -13.5659 -52.019 370.443
lowerback 12.366 -2.97782 -2.20439
upperback 1.86831 -4.32351 -0.712775
thorax -4.84988 -2.11761 1.19562
lowerneck -5.76414 -1.4024 -7.60962
upperneck 4.82937 -1.58013 5.44924
head 2.72732 -0.762034 3.10446
rclavicle 3.54831e-014 -4.77083e-015
rhumerus -51.2706 -1.49347 -98.2974
rradius 73.4282
rwrist 5.81312
rhand -24.5348 28.3041
rfingers 7.12502
rthumb 1.96083 -1.66666
lclavicle 3.54831e-014 -4.77083e-015
lhumerus -64.5343 -3.89416 97.6174
lradius 93.3597
lwrist 8.50345
lhand -5.14439 -11.8288
lfingers 7.12502
lthumb 20.6547 17.0921
rfemur -4.8005 1.18081 29.5157
rtibia 48.939
rfoot -30.361 2.57843
rtoes 9.12278
lfemur -29.8394 4.17188 -14.9228
ltibia 96.3746
lfoot -4.86079 -2.81012
ltoes -7.90922
2920
root -7.4872 16.3841 18.3224 -14.2057 -53.2797 371.075
lowerback 12.3927 -2.60471 -2.31676
upperback 1.84993 -3.85907 -0.933991
thorax -4.90701 -1.88802 0.956575
lowerneck -5.88035 -1.56997 -7.6721
upperneck 5.33515 -1.82336 5.71459
head 2.94712 -0.879676 3.20584
rclavicle 7.4097e-014 -1.27222e-014
rhumerus -51.5285 0.256976 -99.4387
rradius 75.034
rwrist 5.38573
rhand -23.6712 28.3471
rfingers 7.12502
rthumb 2.79489 -1.61432
lclavicle 7.4097e-014 -1.27222e-014
lhumerus -65.7565 -4.42917 97.6658
lradius 94.0404
lwrist 9.33769
lhand -4.68708 -11.9001
lfingers 7.12502
lthumb 21.094 16.9725
rfemur -3.53388 1.91837 28.9046
rtibia 48.4202
rfoot -29.1633 2.98765
rtoes 8.91992
lfemur -30.517 3.82222 -15.5855
ltibia 94.3177
lfoot -5.64898 -2.36985
ltoes -7.90369
2921
root -7.63263 16.4725 18.5342 -15.1737 -54.4551 372.033
lowerback 12.3973 -2.21906 -2.5772
upperback 1.89341 -3.40095 -1.21797
thorax -4.87982 -1.66226 0.732044
lowerneck -6.12026 -1.7635 -7.77867
upperneck 6.14863 -2.12229 6.26105
head 2.97314 -0.996736 3.06764
rclavicle 5.92378e-014 -8.34896e-015
rhumerus -51.7496 2.06011 -100.475
rradius 76.5411
rwrist 4.85265
rhand -22.8056 28.4502
rfingers 7.12502
rthumb 3.63084 -1.49863
lclavicle 5.92378e-014 -8.34896e-015
lhumerus -66.8932 -5.07192 97.7321
lradius 94.7476
lwrist 10.138
lhand -4.44904 -12.1005
lfingers 7.12502
lthumb 21.3227 16.7465
rfemur -2.41448 2.34191 27.9848
rtibia 48.0857
rfoot -27.6792 3.43841
rtoes 8.4295
lfemur -30.9865 3.30732 -16.4692
ltibia 92.0119
lfoot -6.35401 -1.79791
ltoes -8.4483
2922
root -7.78162 16.5627 18.7481 -16.0263 -55.6964 373.01
lowerback 12.2673 -1.81681 -2.76303
upperback 1.85647 -2.90774 -1.52014
thorax -4.86743 -1.41943 0.437676
lowerneck -6.37707 -1.95248 -7.74755
upperneck 6.88505 -2.40465 6.4525
head 3.25842 -1.12839 3.1073
rclavicle 5.37713e-014 -2.14687e-014
rhumerus -52.1063 4.03609 -101.499
rradius 77.9965
rwrist 4.24848
rhand -22.1068 28.407
rfingers 7.12502
rthumb 4.3056 -1.52919
lclavicle 5.37713e-014 -2.14687e-014
lhumerus -68.0041 -5.80823 97.7981
lradius 95.5051
lwrist 10.953
lhand -4.34548 -12.1491
lfingers 7.12502
lthumb 21.4222 16.6866
rfemur -1.65177 2.63226 27.0286
rtibia 47.939
rfoot -25.9389 3.83522
rtoes 7.59503
lfemur -31.4815 2.81741 -17.2465
ltibia 89.5484
lfoot -7.02124 -1.17119
ltoes -8.76188
2923
root -7.93263 16.6522 18.96 -16.8726 -56.9725 373.91
lowerback 12.1969 -1.46791 -2.98176
upperback 1.82634 -2.48653 -1.73459
thorax -4.87106 -1.21068 0.267583
lowerneck -6.68943 -2.08201 -7.74634
upperneck 7.61259 -2.59795 6.57829
head 3.5445 -1.21712 3.1351
rclavicle 3.16565e-014 1.51076e-014
rhumerus -52.581 6.2539 -102.465
rradius 79.4708
rwrist 3.4856
rhand -21.3357 28.2813
rfingers 7.12502
rthumb 5.05023 -1.63852
lclavicle 3.16565e-014 1.51076e-014
lhumerus -69.0431 -6.32844 97.8297
lradius 96.3044
lwrist 11.6833
lhand -4.16882 -12.3011
lfingers 7.12502
lthumb 21.5918 16.5152
rfemur -1.02425 2.87059 26.1494
rtibia 47.9807
rfoot -23.8375 4.16278
rtoes 6.61803
lfemur -31.8429 2.31703 -17.8146
ltibia 86.9331
lfoot -7.46911 -0.618539
ltoes -8.72557
